<?xml version="1.0" encoding="UTF-8" standalone="no"?>
<!-- Created with Inkscape (http://www.inkscape.org/) -->

<svg
   xmlns:osb="http://www.openswatchbook.org/uri/2009/osb"
   xmlns:dc="http://purl.org/dc/elements/1.1/"
   xmlns:cc="http://creativecommons.org/ns#"
   xmlns:rdf="http://www.w3.org/1999/02/22-rdf-syntax-ns#"
   xmlns:svg="http://www.w3.org/2000/svg"
   xmlns="http://www.w3.org/2000/svg"
   xmlns:sodipodi="http://sodipodi.sourceforge.net/DTD/sodipodi-0.dtd"
   xmlns:inkscape="http://www.inkscape.org/namespaces/inkscape"
   width="708.66144"
   height="708.66144"
   viewBox="0 0 708.66142 708.66141"
   id="svg2"
   version="1.1"
   inkscape:version="0.91 r13725"
   sodipodi:docname="leaf.svg">
  <defs
     id="defs4">
    <linearGradient
       id="linearGradient6590"
       osb:paint="solid">
      <stop
         style="stop-color:#361219;stop-opacity:1;"
         offset="0"
         id="stop6592" />
    </linearGradient>
    <clipPath
       clipPathUnits="userSpaceOnUse"
       id="clipPath5017">
      <path
         style="opacity:1;fill:#c9f3f1;fill-opacity:1;stroke:#2a3837;stroke-width:0.62397641;stroke-linecap:round;stroke-linejoin:round;stroke-miterlimit:4;stroke-dasharray:none;stroke-opacity:1"
         inkscape:transform-center-x="-5.1338673"
         inkscape:transform-center-y="-0.76383382"
         d="m 375.64415,377.56081 c -1.24165,1.88254 -1.04468,22.68783 -2.97271,23.84024 -1.92802,1.15242 -20.33582,-9.04153 -22.56835,-8.84749 -2.23254,0.19403 -17.70546,13.53369 -19.80032,12.73091 -2.09487,-0.80278 -5.5968,-21.37592 -7.13908,-23.01651 -1.54228,-1.64059 -21.949,-5.93436 -22.63323,-8.08782 -0.68422,-2.15347 12.85925,-16.60644 13.16859,-18.84625 0.30935,-2.23982 -8.39017,-21.79876 -7.14852,-23.6813 1.24164,-1.88255 21.85388,-0.3399 23.78191,-1.49232 1.92803,-1.15241 10.83828,-19.70534 13.07081,-19.89938 2.23254,-0.19403 14.33079,16.528 16.42565,17.33078 2.09487,0.80278 21.92986,-4.03963 23.47214,-2.39904 1.54228,1.64059 -4.20661,21.74324 -3.52238,23.8967 0.68423,2.15347 16.92601,14.48863 16.61667,16.72844 -0.30935,2.23981 -19.50953,9.86049 -20.75118,11.74304 z"
         id="path5019"
         inkscape:connector-curvature="0"
         sodipodi:nodetypes="sssssssssssssss" />
    </clipPath>
    <clipPath
       clipPathUnits="userSpaceOnUse"
       id="clipPath5054">
      <path
         sodipodi:nodetypes="sssssssssssssss"
         inkscape:connector-curvature="0"
         id="path5056"
         d="m 375.64415,377.56081 c -1.24165,1.88254 -1.04468,22.68783 -2.97271,23.84024 -1.92802,1.15242 -20.33582,-9.04153 -22.56835,-8.84749 -2.23254,0.19403 -17.70546,13.53369 -19.80032,12.73091 -2.09487,-0.80278 -5.5968,-21.37592 -7.13908,-23.01651 -1.54228,-1.64059 -21.949,-5.93436 -22.63323,-8.08782 -0.68422,-2.15347 12.85925,-16.60644 13.16859,-18.84625 0.30935,-2.23982 -8.39017,-21.79876 -7.14852,-23.6813 1.24164,-1.88255 21.85388,-0.3399 23.78191,-1.49232 1.92803,-1.15241 10.83828,-19.70534 13.07081,-19.89938 2.23254,-0.19403 14.33079,16.528 16.42565,17.33078 2.09487,0.80278 21.92986,-4.03963 23.47214,-2.39904 1.54228,1.64059 -4.20661,21.74324 -3.52238,23.8967 0.68423,2.15347 16.92601,14.48863 16.61667,16.72844 -0.30935,2.23981 -19.50953,9.86049 -20.75118,11.74304 z"
         inkscape:transform-center-y="-0.76383382"
         inkscape:transform-center-x="-5.1338673"
         style="opacity:1;fill:#c9f3f1;fill-opacity:1;stroke:#2a3837;stroke-width:0.62397641;stroke-linecap:round;stroke-linejoin:round;stroke-miterlimit:4;stroke-dasharray:none;stroke-opacity:1" />
    </clipPath>
  </defs>
  <sodipodi:namedview
     id="base"
     pagecolor="#ffffff"
     bordercolor="#666666"
     borderopacity="1.0"
     inkscape:pageopacity="0.0"
     inkscape:pageshadow="2"
     inkscape:zoom="0.32269555"
     inkscape:cx="337.01286"
     inkscape:cy="338.36955"
     inkscape:document-units="px"
     inkscape:current-layer="layer6"
     showgrid="false"
     units="px"
     borderlayer="true"
     inkscape:window-width="824"
     inkscape:window-height="614"
     inkscape:window-x="536"
     inkscape:window-y="66"
     inkscape:window-maximized="0" />
  <metadata
     id="metadata7">
    <rdf:RDF>
      <cc:Work
         rdf:about="">
        <dc:format>image/svg+xml</dc:format>
        <dc:type
           rdf:resource="http://purl.org/dc/dcmitype/StillImage" />
        <dc:title></dc:title>
      </cc:Work>
    </rdf:RDF>
  </metadata>
  <g
     inkscape:groupmode="layer"
     id="layer6"
     inkscape:label="Layer 6"
     style="display:inline">
    <path
       style="opacity:1;fill:#a5590e;fill-opacity:1;stroke:none;stroke-width:5.1960001;stroke-linecap:round;stroke-linejoin:round;stroke-miterlimit:4;stroke-dasharray:none;stroke-opacity:1"
       d="M 236.82336,296.14343 C 248.28216,269.49835 539.45684,40.660407 505.49859,54.429528 562.40898,203.8299 543.1566,298.35944 496.2019,443.91295 481.14426,478.47404 423.32775,586.96168 371.62534,617.45114 74.181871,744.61589 84.692967,422.57765 236.82336,296.14343 Z"
       id="rect5065"
       inkscape:connector-curvature="0"
       sodipodi:nodetypes="ccccc" />
    <path
       style="opacity:1;fill:#4b2906;fill-opacity:1;stroke:none;stroke-width:5.1960001;stroke-linecap:round;stroke-linejoin:round;stroke-miterlimit:4;stroke-dasharray:none;stroke-opacity:1"
       d="m 460.18607,177.20074 74.3735,-20.14282 c 1.45255,11.8791 3.57723,23.7582 3.0989,35.6373 l -82.12074,19.3681 z"
       id="rect6744"
       inkscape:connector-curvature="0"
       sodipodi:nodetypes="ccccc" />
    <path
       style="opacity:1;fill:#4b2906;fill-opacity:1;stroke:none;stroke-width:5.1960001;stroke-linecap:round;stroke-linejoin:round;stroke-miterlimit:4;stroke-dasharray:none;stroke-opacity:1"
       d="m 434.96323,241.92509 c 38.04136,1.94542 70.20645,-10.1859 102.66787,-19.40035 5.86429,21.18209 2.43388,42.36417 -3.28687,63.54626 L 420.7201,285.7501 Z"
       id="rect6747"
       inkscape:connector-curvature="0"
       sodipodi:nodetypes="ccccc" />
    <path
       style="opacity:1;fill:#4b2906;fill-opacity:1;stroke:none;stroke-width:5.1960001;stroke-linecap:round;stroke-linejoin:round;stroke-miterlimit:4;stroke-dasharray:none;stroke-opacity:1"
       d="M 336.35693,405.17325 511.65697,384.35637 C 506.48854,411.401 498.90245,441.55404 453.58884,520.2139 L 287.05379,514.73577 Z"
       id="rect6750"
       inkscape:connector-curvature="0"
       sodipodi:nodetypes="ccccc" />
  </g>
  <g
     inkscape:groupmode="layer"
     id="layer8"
     inkscape:label="Layer 7">
    <path
       style="opacity:1;fill:#4b2906;fill-opacity:1;stroke:none;stroke-width:5.1960001;stroke-linecap:round;stroke-linejoin:round;stroke-miterlimit:4;stroke-dasharray:none;stroke-opacity:1"
       d="m 484.32876,93.404315 c 14.02327,-18.436827 16.18418,-33.291613 22.38983,-31.639952 0,0 10.23106,26.957574 13.74021,35.156506 C 423.9449,280.05183 351.50454,468.53248 221.91706,644.31376 146.28564,612.19193 156.06011,595.72174 146.09641,578.32929 285.52612,443.66123 405.47704,276.26407 484.32876,93.404315 Z"
       id="rect6732"
       inkscape:connector-curvature="0"
       sodipodi:nodetypes="cscccc" />
    <path
       style="opacity:1;fill:#4b2906;fill-opacity:1;stroke:none;stroke-width:5.1960001;stroke-linecap:round;stroke-linejoin:round;stroke-miterlimit:4;stroke-dasharray:none;stroke-opacity:1"
       d="m 433.57572,124.17971 67.15127,-58.684357 4.97593,58.055907 -39.86408,42.71995 z"
       id="rect6735"
       inkscape:connector-curvature="0"
       sodipodi:nodetypes="ccccc" />
    <path
       style="opacity:1;fill:#4b2906;fill-opacity:1;stroke:none;stroke-width:5.1960001;stroke-linecap:round;stroke-linejoin:round;stroke-miterlimit:4;stroke-dasharray:none;stroke-opacity:1"
       d="m 277.19318,255.07258 49.30313,-42.72938 62.45064,122.71002 -54.78126,77.78939 z"
       id="rect6738"
       inkscape:connector-curvature="0"
       sodipodi:nodetypes="ccccc" />
    <path
       style="opacity:1;fill:#4b2906;fill-opacity:1;stroke:none;stroke-width:5.1960001;stroke-linecap:round;stroke-linejoin:round;stroke-miterlimit:4;stroke-dasharray:none;stroke-opacity:1"
       d="m 153.38753,422.70326 c 1.49213,-24.04811 19.70352,-50.88275 38.34688,-77.78939 l 46.01626,236.65504 -87.25125,7.74724 c -8.45095,-9.19006 -34.22255,-107.66876 2.88811,-166.61289 z"
       id="rect6741"
       inkscape:connector-curvature="0"
       sodipodi:nodetypes="ccccc" />
  </g>
</svg>
