<?xml version="1.0" encoding="UTF-8" standalone="no"?>
<!-- Created with Inkscape (http://www.inkscape.org/) -->

<svg
   xmlns:osb="http://www.openswatchbook.org/uri/2009/osb"
   xmlns:dc="http://purl.org/dc/elements/1.1/"
   xmlns:cc="http://creativecommons.org/ns#"
   xmlns:rdf="http://www.w3.org/1999/02/22-rdf-syntax-ns#"
   xmlns:svg="http://www.w3.org/2000/svg"
   xmlns="http://www.w3.org/2000/svg"
   xmlns:sodipodi="http://sodipodi.sourceforge.net/DTD/sodipodi-0.dtd"
   xmlns:inkscape="http://www.inkscape.org/namespaces/inkscape"
   width="708.66144"
   height="708.66144"
   viewBox="0 0 708.66142 708.66141"
   id="svg2"
   version="1.1"
   inkscape:version="0.91 r13725"
   sodipodi:docname="middle.svg">
  <defs
     id="defs4">
    <linearGradient
       id="linearGradient6590"
       osb:paint="solid">
      <stop
         style="stop-color:#361219;stop-opacity:1;"
         offset="0"
         id="stop6592" />
    </linearGradient>
    <clipPath
       clipPathUnits="userSpaceOnUse"
       id="clipPath5017">
      <path
         style="opacity:1;fill:#c9f3f1;fill-opacity:1;stroke:#2a3837;stroke-width:0.62397641;stroke-linecap:round;stroke-linejoin:round;stroke-miterlimit:4;stroke-dasharray:none;stroke-opacity:1"
         inkscape:transform-center-x="-5.1338673"
         inkscape:transform-center-y="-0.76383382"
         d="m 375.64415,377.56081 c -1.24165,1.88254 -1.04468,22.68783 -2.97271,23.84024 -1.92802,1.15242 -20.33582,-9.04153 -22.56835,-8.84749 -2.23254,0.19403 -17.70546,13.53369 -19.80032,12.73091 -2.09487,-0.80278 -5.5968,-21.37592 -7.13908,-23.01651 -1.54228,-1.64059 -21.949,-5.93436 -22.63323,-8.08782 -0.68422,-2.15347 12.85925,-16.60644 13.16859,-18.84625 0.30935,-2.23982 -8.39017,-21.79876 -7.14852,-23.6813 1.24164,-1.88255 21.85388,-0.3399 23.78191,-1.49232 1.92803,-1.15241 10.83828,-19.70534 13.07081,-19.89938 2.23254,-0.19403 14.33079,16.528 16.42565,17.33078 2.09487,0.80278 21.92986,-4.03963 23.47214,-2.39904 1.54228,1.64059 -4.20661,21.74324 -3.52238,23.8967 0.68423,2.15347 16.92601,14.48863 16.61667,16.72844 -0.30935,2.23981 -19.50953,9.86049 -20.75118,11.74304 z"
         id="path5019"
         inkscape:connector-curvature="0"
         sodipodi:nodetypes="sssssssssssssss" />
    </clipPath>
    <clipPath
       clipPathUnits="userSpaceOnUse"
       id="clipPath5054">
      <path
         sodipodi:nodetypes="sssssssssssssss"
         inkscape:connector-curvature="0"
         id="path5056"
         d="m 375.64415,377.56081 c -1.24165,1.88254 -1.04468,22.68783 -2.97271,23.84024 -1.92802,1.15242 -20.33582,-9.04153 -22.56835,-8.84749 -2.23254,0.19403 -17.70546,13.53369 -19.80032,12.73091 -2.09487,-0.80278 -5.5968,-21.37592 -7.13908,-23.01651 -1.54228,-1.64059 -21.949,-5.93436 -22.63323,-8.08782 -0.68422,-2.15347 12.85925,-16.60644 13.16859,-18.84625 0.30935,-2.23982 -8.39017,-21.79876 -7.14852,-23.6813 1.24164,-1.88255 21.85388,-0.3399 23.78191,-1.49232 1.92803,-1.15241 10.83828,-19.70534 13.07081,-19.89938 2.23254,-0.19403 14.33079,16.528 16.42565,17.33078 2.09487,0.80278 21.92986,-4.03963 23.47214,-2.39904 1.54228,1.64059 -4.20661,21.74324 -3.52238,23.8967 0.68423,2.15347 16.92601,14.48863 16.61667,16.72844 -0.30935,2.23981 -19.50953,9.86049 -20.75118,11.74304 z"
         inkscape:transform-center-y="-0.76383382"
         inkscape:transform-center-x="-5.1338673"
         style="opacity:1;fill:#c9f3f1;fill-opacity:1;stroke:#2a3837;stroke-width:0.62397641;stroke-linecap:round;stroke-linejoin:round;stroke-miterlimit:4;stroke-dasharray:none;stroke-opacity:1" />
    </clipPath>
  </defs>
  <sodipodi:namedview
     id="base"
     pagecolor="#ffffff"
     bordercolor="#666666"
     borderopacity="1.0"
     inkscape:pageopacity="0.0"
     inkscape:pageshadow="2"
     inkscape:zoom="0.54717912"
     inkscape:cx="309.60084"
     inkscape:cy="327.09078"
     inkscape:document-units="px"
     inkscape:current-layer="layer6"
     showgrid="false"
     units="px"
     borderlayer="true"
     inkscape:window-width="1366"
     inkscape:window-height="715"
     inkscape:window-x="-8"
     inkscape:window-y="-8"
     inkscape:window-maximized="1" />
  <metadata
     id="metadata7">
    <rdf:RDF>
      <cc:Work
         rdf:about="">
        <dc:format>image/svg+xml</dc:format>
        <dc:type
           rdf:resource="http://purl.org/dc/dcmitype/StillImage" />
        <dc:title></dc:title>
      </cc:Work>
    </rdf:RDF>
  </metadata>
  <g
     inkscape:groupmode="layer"
     id="layer6"
     inkscape:label="Layer 6" />
  <g
     inkscape:groupmode="layer"
     id="layer5"
     inkscape:label="Layer 5"
     style="display:inline" />
  <g
     inkscape:groupmode="layer"
     id="layer7"
     inkscape:label="Layer 7"
     style="display:inline">
    <ellipse
       style="opacity:1;fill:#a3a3a3;fill-opacity:1;stroke:none;stroke-width:5.1960001;stroke-linecap:round;stroke-linejoin:round;stroke-miterlimit:4;stroke-dasharray:none;stroke-opacity:1"
       id="path6710"
       cx="343.43155"
       cy="217.8136"
       rx="56.568542"
       ry="55.558392" />
  </g>
</svg>
