<?xml version="1.0" encoding="UTF-8" standalone="no"?>
<!-- Created with Inkscape (http://www.inkscape.org/) -->

<svg
   xmlns:osb="http://www.openswatchbook.org/uri/2009/osb"
   xmlns:dc="http://purl.org/dc/elements/1.1/"
   xmlns:cc="http://creativecommons.org/ns#"
   xmlns:rdf="http://www.w3.org/1999/02/22-rdf-syntax-ns#"
   xmlns:svg="http://www.w3.org/2000/svg"
   xmlns="http://www.w3.org/2000/svg"
   xmlns:sodipodi="http://sodipodi.sourceforge.net/DTD/sodipodi-0.dtd"
   xmlns:inkscape="http://www.inkscape.org/namespaces/inkscape"
   width="708.66144"
   height="708.66144"
   viewBox="0 0 708.66142 708.66141"
   id="svg2"
   version="1.1"
   inkscape:version="0.91 r13725"
   sodipodi:docname="petals.svg">
  <defs
     id="defs4">
    <linearGradient
       id="linearGradient6590"
       osb:paint="solid">
      <stop
         style="stop-color:#361219;stop-opacity:1;"
         offset="0"
         id="stop6592" />
    </linearGradient>
    <clipPath
       clipPathUnits="userSpaceOnUse"
       id="clipPath5017">
      <path
         style="opacity:1;fill:#c9f3f1;fill-opacity:1;stroke:#2a3837;stroke-width:0.62397641;stroke-linecap:round;stroke-linejoin:round;stroke-miterlimit:4;stroke-dasharray:none;stroke-opacity:1"
         inkscape:transform-center-x="-5.1338673"
         inkscape:transform-center-y="-0.76383382"
         d="m 375.64415,377.56081 c -1.24165,1.88254 -1.04468,22.68783 -2.97271,23.84024 -1.92802,1.15242 -20.33582,-9.04153 -22.56835,-8.84749 -2.23254,0.19403 -17.70546,13.53369 -19.80032,12.73091 -2.09487,-0.80278 -5.5968,-21.37592 -7.13908,-23.01651 -1.54228,-1.64059 -21.949,-5.93436 -22.63323,-8.08782 -0.68422,-2.15347 12.85925,-16.60644 13.16859,-18.84625 0.30935,-2.23982 -8.39017,-21.79876 -7.14852,-23.6813 1.24164,-1.88255 21.85388,-0.3399 23.78191,-1.49232 1.92803,-1.15241 10.83828,-19.70534 13.07081,-19.89938 2.23254,-0.19403 14.33079,16.528 16.42565,17.33078 2.09487,0.80278 21.92986,-4.03963 23.47214,-2.39904 1.54228,1.64059 -4.20661,21.74324 -3.52238,23.8967 0.68423,2.15347 16.92601,14.48863 16.61667,16.72844 -0.30935,2.23981 -19.50953,9.86049 -20.75118,11.74304 z"
         id="path5019"
         inkscape:connector-curvature="0"
         sodipodi:nodetypes="sssssssssssssss" />
    </clipPath>
    <clipPath
       clipPathUnits="userSpaceOnUse"
       id="clipPath5054">
      <path
         sodipodi:nodetypes="sssssssssssssss"
         inkscape:connector-curvature="0"
         id="path5056"
         d="m 375.64415,377.56081 c -1.24165,1.88254 -1.04468,22.68783 -2.97271,23.84024 -1.92802,1.15242 -20.33582,-9.04153 -22.56835,-8.84749 -2.23254,0.19403 -17.70546,13.53369 -19.80032,12.73091 -2.09487,-0.80278 -5.5968,-21.37592 -7.13908,-23.01651 -1.54228,-1.64059 -21.949,-5.93436 -22.63323,-8.08782 -0.68422,-2.15347 12.85925,-16.60644 13.16859,-18.84625 0.30935,-2.23982 -8.39017,-21.79876 -7.14852,-23.6813 1.24164,-1.88255 21.85388,-0.3399 23.78191,-1.49232 1.92803,-1.15241 10.83828,-19.70534 13.07081,-19.89938 2.23254,-0.19403 14.33079,16.528 16.42565,17.33078 2.09487,0.80278 21.92986,-4.03963 23.47214,-2.39904 1.54228,1.64059 -4.20661,21.74324 -3.52238,23.8967 0.68423,2.15347 16.92601,14.48863 16.61667,16.72844 -0.30935,2.23981 -19.50953,9.86049 -20.75118,11.74304 z"
         inkscape:transform-center-y="-0.76383382"
         inkscape:transform-center-x="-5.1338673"
         style="opacity:1;fill:#c9f3f1;fill-opacity:1;stroke:#2a3837;stroke-width:0.62397641;stroke-linecap:round;stroke-linejoin:round;stroke-miterlimit:4;stroke-dasharray:none;stroke-opacity:1" />
    </clipPath>
  </defs>
  <sodipodi:namedview
     id="base"
     pagecolor="#ffffff"
     bordercolor="#666666"
     borderopacity="1.0"
     inkscape:pageopacity="0.0"
     inkscape:pageshadow="2"
     inkscape:zoom="0.54717912"
     inkscape:cx="309.60084"
     inkscape:cy="327.09078"
     inkscape:document-units="px"
     inkscape:current-layer="layer5"
     showgrid="false"
     units="px"
     borderlayer="true"
     inkscape:window-width="1366"
     inkscape:window-height="715"
     inkscape:window-x="-8"
     inkscape:window-y="-8"
     inkscape:window-maximized="1" />
  <metadata
     id="metadata7">
    <rdf:RDF>
      <cc:Work
         rdf:about="">
        <dc:format>image/svg+xml</dc:format>
        <dc:type
           rdf:resource="http://purl.org/dc/dcmitype/StillImage" />
        <dc:title></dc:title>
      </cc:Work>
    </rdf:RDF>
  </metadata>
  <g
     inkscape:groupmode="layer"
     id="layer6"
     inkscape:label="Layer 6" />
  <g
     inkscape:groupmode="layer"
     id="layer5"
     inkscape:label="Layer 5"
     style="display:inline">
    <g
       id="g6696"
       transform="matrix(0.92411908,0.38210459,-0.38210459,0.92411908,155.85961,-76.058411)"
       style="fill:#ffffff;fill-opacity:1">
      <ellipse
         transform="matrix(0.94856853,-0.31657186,0.33646108,0.94169737,0,0)"
         ry="91.209473"
         rx="54.131912"
         cy="325.53619"
         cx="210.39748"
         id="path6604"
         style="opacity:1;fill:#ffffff;fill-opacity:1;stroke:none;stroke-width:5.28330803;stroke-linecap:round;stroke-linejoin:round;stroke-miterlimit:4;stroke-dasharray:none;stroke-opacity:1" />
      <ellipse
         transform="matrix(0.83163888,0.55531682,-0.53769494,0.84313946,0,0)"
         ry="91.209473"
         rx="54.131912"
         cy="-19.788071"
         cx="465.77927"
         id="path6604-9"
         style="opacity:1;fill:#ffffff;fill-opacity:1;stroke:none;stroke-width:5.28330803;stroke-linecap:round;stroke-linejoin:round;stroke-miterlimit:4;stroke-dasharray:none;stroke-opacity:1" />
      <ellipse
         transform="matrix(0.05133514,0.99868148,-0.99738021,0.07233754,0,0)"
         ry="91.209473"
         rx="54.131912"
         cy="-423.88809"
         cx="343.79797"
         id="path6604-9-8"
         style="opacity:1;fill:#ffffff;fill-opacity:1;stroke:none;stroke-width:5.28330803;stroke-linecap:round;stroke-linejoin:round;stroke-miterlimit:4;stroke-dasharray:none;stroke-opacity:1" />
      <ellipse
         transform="matrix(-0.60406726,0.79693334,-0.80946739,-0.58716484,0,0)"
         ry="91.209473"
         rx="54.131912"
         cy="-571.49292"
         cx="70.160149"
         id="path6604-9-8-6"
         style="opacity:1;fill:#ffffff;fill-opacity:1;stroke:none;stroke-width:5.28330803;stroke-linecap:round;stroke-linejoin:round;stroke-miterlimit:4;stroke-dasharray:none;stroke-opacity:1" />
      <ellipse
         transform="matrix(-0.99956377,0.02953431,-0.05056011,-0.99872102,0,0)"
         ry="91.209473"
         rx="54.131912"
         cy="-419.8335"
         cx="-326.40808"
         id="path6604-9-8-6-8"
         style="opacity:1;fill:#ffffff;fill-opacity:1;stroke:none;stroke-width:5.28330803;stroke-linecap:round;stroke-linejoin:round;stroke-miterlimit:4;stroke-dasharray:none;stroke-opacity:1" />
      <ellipse
         transform="matrix(-0.68650855,-0.72712173,0.71251557,-0.7016563,0,0)"
         ry="91.209473"
         rx="54.131912"
         cy="-59.187233"
         cx="-464.60257"
         id="path6604-9-8-6-8-1"
         style="opacity:1;fill:#ffffff;fill-opacity:1;stroke:none;stroke-width:5.28330803;stroke-linecap:round;stroke-linejoin:round;stroke-miterlimit:4;stroke-dasharray:none;stroke-opacity:1" />
      <ellipse
         transform="matrix(0.35452582,-0.93504622,0.94229897,0.33477254,0,0)"
         ry="91.209473"
         rx="54.131912"
         cy="348.69516"
         cx="-203.07785"
         id="path6604-9-8-6-8-1-9"
         style="opacity:1;fill:#ffffff;fill-opacity:1;stroke:none;stroke-width:5.28330803;stroke-linecap:round;stroke-linejoin:round;stroke-miterlimit:4;stroke-dasharray:none;stroke-opacity:1" />
    </g>
  </g>
  <g
     inkscape:groupmode="layer"
     id="layer7"
     inkscape:label="Layer 7"
     style="display:inline" />
</svg>
